<svg width="23" height="24" viewBox="0 0 23 24" fill="none" xmlns="http://www.w3.org/2000/svg">
<rect width="23" height="24" rx="11.5" fill="#EDF1FE"/>
<path fill-rule="evenodd" clip-rule="evenodd" d="M10.3822 17.5177C10.3705 18.0699 10.8085 18.527 11.3607 18.5387C11.9129 18.5505 12.37 18.1124 12.3817 17.5602L12.4792 12.9794L17.0601 12.8819C17.6123 12.8701 18.0503 12.413 18.0386 11.8608C18.0269 11.3087 17.5697 10.8706 17.0176 10.8823L12.5218 10.978L12.6174 6.48224C12.6292 5.93008 12.1911 5.47294 11.6389 5.4612C11.0868 5.44945 10.6297 5.88754 10.6179 6.4397L10.5204 11.0206L5.93955 11.118C5.38739 11.1298 4.9493 11.5869 4.96105 12.1391C4.9728 12.6913 5.42993 13.1293 5.98209 13.1176L10.4779 13.0219L10.3822 17.5177Z" fill="#4871F7"/>
</svg>
