<svg width="23" height="24" viewBox="0 0 23 24" fill="none" xmlns="http://www.w3.org/2000/svg">
<rect width="23" height="24" rx="11.5" fill="#EDF1FE"/>
<path fill-rule="evenodd" clip-rule="evenodd" d="M6.80809 15.1113C6.40935 15.4934 6.39588 16.1265 6.77801 16.5252C7.16014 16.9239 7.79316 16.9374 8.1919 16.5553L11.5 13.385L14.8081 16.5553C15.2068 16.9374 15.8399 16.9239 16.222 16.5252C16.6041 16.1265 16.5906 15.4934 16.1919 15.1113L12.9453 12L16.1919 8.88862C16.5906 8.50649 16.6041 7.87347 16.222 7.47472C15.8399 7.07598 15.2068 7.06251 14.8081 7.44464L11.5 10.6149L8.1919 7.44464C7.79316 7.06251 7.16014 7.07598 6.77801 7.47472C6.39588 7.87346 6.40935 8.50649 6.80809 8.88862L10.0547 12L6.80809 15.1113Z" fill="#4871F7"/>
</svg>
